<svg xmlns="http://www.w3.org/2000/svg" width="24" height="24" viewBox="0 0 24 24" fill="none">
<path d="M17.9996 15C19.0604 15 20.0779 15.4214 20.828 16.1716C21.5781 16.9217 21.9996 17.9392 21.9996 19C21.9996 20.0609 21.5781 21.0783 20.828 21.8284C20.0779 22.5786 19.0604 23 17.9996 23C16.9387 23 15.9213 22.5786 15.1711 21.8284C14.421 21.0783 13.9996 20.0609 13.9996 19C13.9996 17.9392 14.421 16.9217 15.1711 16.1716C15.9213 15.4214 16.9387 15 17.9996 15ZM17.9996 17C17.4691 17 16.9604 17.2107 16.5854 17.5858C16.2103 17.9609 15.9996 18.4696 15.9996 19C15.9996 19.5305 16.2103 20.0392 16.5854 20.4142C16.9604 20.7893 17.4691 21 17.9996 21C18.53 21 19.0387 20.7893 19.4138 20.4142C19.7889 20.0392 19.9996 19.5305 19.9996 19C19.9996 18.4696 19.7889 17.9609 19.4138 17.5858C19.0387 17.2107 18.53 17 17.9996 17ZM6.04957 14.54C6.04957 14.54 7.45957 13.12 7.46957 10.3C7.10957 8.11002 7.96957 5.54002 9.93957 3.58002C12.8696 0.650021 17.1396 0.170021 19.4996 2.50002C21.8296 4.86002 21.3496 9.13002 18.4196 12.06C16.4596 14.03 13.8896 14.89 11.6996 14.53C8.87957 14.54 7.45957 15.95 7.45957 15.95L3.21957 20.19L1.80957 18.78L6.04957 14.54ZM18.0696 3.93002C16.4996 2.37002 13.4996 2.84002 11.3496 5.00002C9.20957 7.14002 8.72957 10.15 10.2896 11.71C11.8596 13.27 14.8596 12.79 16.9996 10.65C19.1596 8.50002 19.6296 5.50002 18.0696 3.93002Z" fill="black" fill-opacity="0.6"/>
</svg>