<svg xmlns="http://www.w3.org/2000/svg" width="24" height="24" viewBox="0 0 24 24" fill="none">
<path d="M14.2703 6.00002C13.7203 6.95002 14.0503 8.18002 15.0003 8.73002C15.9503 9.28001 17.1803 8.95002 17.7303 8.00002C18.2803 7.05002 17.9503 5.82002 17.0003 5.27002C16.0503 4.72002 14.8203 5.05002 14.2703 6.00002Z" fill="black" fill-opacity="0.6"/>
<path d="M15.8402 10.41L13.2402 8.91001C12.2223 8.3149 11.4462 7.38072 11.0476 6.27101C10.6491 5.1613 10.6535 3.94676 11.0602 2.84001C11.1438 2.62011 11.1465 2.37763 11.0677 2.15594C10.9889 1.93426 10.8339 1.74783 10.6302 1.63001C10.1002 1.33001 9.41022 1.56001 9.20022 2.13001C8.25022 4.64001 8.85022 7.48001 10.6602 9.40001L6.01022 17.45C5.73022 17.93 5.90022 18.54 6.38022 18.82C6.86022 19.1 7.47022 18.93 7.75022 18.45L8.75022 16.72L10.4802 17.72L7.98022 22.05C7.70022 22.53 7.87022 23.14 8.35022 23.42C8.83022 23.7 9.44022 23.53 9.72022 23.05L15.5102 13.03C16.0019 13.7009 16.3195 14.4832 16.4347 15.3069C16.5499 16.1306 16.459 16.97 16.1702 17.75C16.0882 17.9954 16.1047 18.2631 16.2161 18.4967C16.3275 18.7302 16.5252 18.9114 16.7675 19.0022C17.0099 19.0929 17.278 19.086 17.5153 18.983C17.7527 18.88 17.9409 18.689 18.0402 18.45C19.0102 15.83 18.4502 12.61 15.8402 10.41ZM12.7502 3.80001C13.4702 4.21001 14.3802 3.97001 14.8002 3.25001C15.2102 2.53001 14.9702 1.62001 14.2502 1.20001C13.9059 1.00813 13.4998 0.959418 13.1199 1.06441C12.7399 1.16939 12.4165 1.41965 12.2195 1.76111C12.0225 2.10257 11.9677 2.50783 12.067 2.88933C12.1663 3.27083 12.4117 3.59794 12.7502 3.80001Z" fill="black" fill-opacity="0.6"/>
</svg>