<svg width="13" height="14" viewBox="0 0 13 14" fill="none" xmlns="http://www.w3.org/2000/svg">
<g id="carbon:calendar">
<path id="Vector" d="M10.5625 2.125H8.9375V1.3125H8.125V2.125H4.875V1.3125H4.0625V2.125H2.4375C1.99062 2.125 1.625 2.49063 1.625 2.9375V11.0625C1.625 11.5094 1.99062 11.875 2.4375 11.875H10.5625C11.0094 11.875 11.375 11.5094 11.375 11.0625V2.9375C11.375 2.49063 11.0094 2.125 10.5625 2.125ZM10.5625 11.0625H2.4375V5.375H10.5625V11.0625ZM10.5625 4.5625H2.4375V2.9375H4.0625V3.75H4.875V2.9375H8.125V3.75H8.9375V2.9375H10.5625V4.5625Z" fill="#AAAAAA"/>
</g>
</svg>
