<svg width="24" height="24" viewBox="0 0 24 24" fill="none" xmlns="http://www.w3.org/2000/svg">
<path d="M5.57901 5.57972C5.78995 5.36905 6.07588 5.25071 6.37401 5.25071C6.67214 5.25071 6.95807 5.36905 7.16901 5.57972L11.999 10.4097L16.829 5.57972C16.9665 5.43163 17.1414 5.32338 17.3353 5.26636C17.5292 5.20933 17.7348 5.20566 17.9306 5.25572C18.1264 5.30578 18.3051 5.40772 18.4478 5.5508C18.5905 5.69388 18.692 5.87281 18.7415 6.06872C18.7916 6.26429 18.7881 6.46974 18.7314 6.66349C18.6746 6.85723 18.5667 7.03211 18.419 7.16972L13.589 11.9997L18.419 16.8297C18.5671 16.9672 18.6754 17.1421 18.7324 17.336C18.7894 17.5299 18.7931 17.7355 18.743 17.9313C18.693 18.1271 18.591 18.3058 18.4479 18.4485C18.3048 18.5912 18.1259 18.6927 17.93 18.7422C17.7344 18.7923 17.529 18.7888 17.3352 18.7321C17.1415 18.6753 16.9666 18.5674 16.829 18.4197L11.999 13.5897L7.16901 18.4197C6.95562 18.6183 6.67354 18.7265 6.38206 18.7215C6.09059 18.7164 5.81241 18.5986 5.60601 18.3927C5.40015 18.1863 5.28231 17.9081 5.27728 17.6167C5.27224 17.3252 5.3804 17.0431 5.57901 16.8297L10.409 11.9997L5.57901 7.16972C5.36833 6.95878 5.25 6.67285 5.25 6.37472C5.25 6.07659 5.36833 5.79066 5.57901 5.57972Z" fill="black"/>
</svg>
