<svg width="20" height="20" viewBox="0 0 20 20" fill="none" xmlns="http://www.w3.org/2000/svg">
<g clip-path="url(#clip0_342_1533)">
<path d="M10.0026 19.1673C9.78159 19.1673 9.56963 19.0795 9.41335 18.9232C9.25707 18.767 9.16927 18.555 9.16927 18.334V15.834H5.83594C5.39391 15.834 4.96999 15.6584 4.65743 15.3458C4.34487 15.0333 4.16927 14.6093 4.16927 14.1673V5.83398C4.16927 5.39196 4.34487 4.96803 4.65743 4.65547C4.96999 4.34291 5.39391 4.16732 5.83594 4.16732H17.5026C17.9446 4.16732 18.3686 4.34291 18.6811 4.65547C18.9937 4.96803 19.1693 5.39196 19.1693 5.83398V14.1673C19.1693 14.6093 18.9937 15.0333 18.6811 15.3458C18.3686 15.6584 17.9446 15.834 17.5026 15.834H14.0859L11.0026 18.9257C10.8359 19.0757 10.6359 19.1673 10.4193 19.1673H10.0026ZM10.8359 14.1673V16.734L13.4026 14.1673H17.5026V5.83398H5.83594V14.1673H10.8359ZM2.5026 12.5007H0.835938V2.50065C0.835938 2.05862 1.01153 1.6347 1.32409 1.32214C1.63665 1.00958 2.06058 0.833984 2.5026 0.833984H15.8359V2.50065H2.5026V12.5007ZM7.5026 7.50065H15.8359V9.16732H7.5026V7.50065ZM7.5026 10.834H14.1693V12.5007H7.5026V10.834Z" fill="#5FCA7B"/>
</g>
<defs>
<clipPath id="clip0_342_1533">
<rect width="20" height="20" fill="white"/>
</clipPath>
</defs>
</svg>
