<svg width="20" height="20" viewBox="0 0 20 20" fill="none" xmlns="http://www.w3.org/2000/svg">
<path d="M10.0807 15.4583L9.9974 15.5417L9.90573 15.4583C5.9474 11.8667 3.33073 9.49167 3.33073 7.08333C3.33073 5.41667 4.58073 4.16667 6.2474 4.16667C7.53073 4.16667 8.78073 5 9.2224 6.13333H10.7724C11.2141 5 12.4641 4.16667 13.7474 4.16667C15.4141 4.16667 16.6641 5.41667 16.6641 7.08333C16.6641 9.49167 14.0474 11.8667 10.0807 15.4583ZM13.7474 2.5C12.2974 2.5 10.9057 3.175 9.9974 4.23333C9.08906 3.175 7.6974 2.5 6.2474 2.5C3.68073 2.5 1.66406 4.50833 1.66406 7.08333C1.66406 10.225 4.4974 12.8 8.78906 16.6917L9.9974 17.7917L11.2057 16.6917C15.4974 12.8 18.3307 10.225 18.3307 7.08333C18.3307 4.50833 16.3141 2.5 13.7474 2.5Z" fill="#5FCA7B"/>
</svg>
