<svg width="20" height="20" viewBox="0 0 20 20" fill="none" xmlns="http://www.w3.org/2000/svg">
<path d="M10.0026 3.33398C10.8867 3.33398 11.7345 3.68517 12.3596 4.31029C12.9847 4.93542 13.3359 5.78326 13.3359 6.66732C13.3359 7.55137 12.9847 8.39922 12.3596 9.02434C11.7345 9.64946 10.8867 10.0007 10.0026 10.0007C9.11855 10.0007 8.2707 9.64946 7.64558 9.02434C7.02046 8.39922 6.66927 7.55137 6.66927 6.66732C6.66927 5.78326 7.02046 4.93542 7.64558 4.31029C8.2707 3.68517 9.11855 3.33398 10.0026 3.33398ZM10.0026 5.00065C9.56058 5.00065 9.13665 5.17625 8.82409 5.48881C8.51153 5.80137 8.33594 6.22529 8.33594 6.66732C8.33594 7.10935 8.51153 7.53327 8.82409 7.84583C9.13665 8.15839 9.56058 8.33398 10.0026 8.33398C10.4446 8.33398 10.8686 8.15839 11.1811 7.84583C11.4937 7.53327 11.6693 7.10935 11.6693 6.66732C11.6693 6.22529 11.4937 5.80137 11.1811 5.48881C10.8686 5.17625 10.4446 5.00065 10.0026 5.00065ZM10.0026 10.834C12.2276 10.834 16.6693 11.9423 16.6693 14.1673V16.6673H3.33594V14.1673C3.33594 11.9423 7.7776 10.834 10.0026 10.834ZM10.0026 12.4173C7.5276 12.4173 4.91927 13.634 4.91927 14.1673V15.084H15.0859V14.1673C15.0859 13.634 12.4776 12.4173 10.0026 12.4173Z" fill="#5FCA7B"/>
</svg>
