<svg width="20" height="20" viewBox="0 0 20 20" fill="none" xmlns="http://www.w3.org/2000/svg">
<path d="M10.9109 16.666C11.0109 17.266 11.2193 17.8243 11.5109 18.3327H5.0026C4.0776 18.3327 3.33594 17.591 3.33594 16.666V3.33268C3.33594 2.89065 3.51153 2.46673 3.82409 2.15417C4.13665 1.84161 4.56058 1.66602 5.0026 1.66602H11.6693L16.6693 6.66602V10.9077C16.3943 10.866 16.1193 10.8327 15.8359 10.8327C15.5526 10.8327 15.2776 10.866 15.0026 10.9077V7.49935H10.8359V3.33268H5.0026V16.666H10.9109ZM19.1693 14.166L16.6693 12.0827V13.3327H13.3359V14.9993H16.6693V16.2493L19.1693 14.166ZM15.0026 15.416L12.5026 17.4993L15.0026 19.5827V18.3327H18.3359V16.666H15.0026V15.416Z" fill="#5FCA7B"/>
</svg>
