<svg xmlns="http://www.w3.org/2000/svg" width="24" height="24" viewBox="0 0 24 24" fill="none">
<path d="M1.07812 5.57812V18.4219H22.9219V5.57812H1.07812ZM1.92188 6.42188H11.5781V10.1258C10.7227 10.3196 10.0781 11.0884 10.0781 12C10.0781 12.9116 10.7227 13.6805 11.5781 13.8743V17.5781H1.92188V14.6719H4.92188V9.32812H1.92188V6.42188ZM12.4219 6.42188H22.0781V9.32812H19.0781V14.6719H22.0781V17.5781H12.4219V13.8743C13.2773 13.6804 13.9219 12.9116 13.9219 12C13.9219 11.0884 13.2773 10.3195 12.4219 10.1258V6.42188ZM1.92188 10.1719H4.07812V13.8281H1.92188V10.1719ZM19.9219 10.1719H22.0781V13.8281H19.9219V10.1719ZM11.5781 11.0059V12.9941C11.1905 12.8316 10.9219 12.4503 10.9219 12C10.9219 11.5497 11.1905 11.1684 11.5781 11.0059ZM12.4219 11.0059C12.8095 11.1684 13.0781 11.5497 13.0781 12C13.0781 12.4503 12.8095 12.8316 12.4219 12.9941V11.0059Z" fill="black" fill-opacity="0.6"/>
</svg>