<svg xmlns="http://www.w3.org/2000/svg" width="24" height="24" viewBox="0 0 24 24" fill="none">
<path d="M12.7176 20.713C11.0905 21.173 9.35671 21.0803 7.78794 20.4493C6.21917 19.8182 4.90407 18.6846 4.04868 17.226C3.1933 15.7674 2.84598 14.0662 3.06114 12.389C3.27629 10.7119 4.04178 9.15344 5.23764 7.95798L5.95764 7.23798C7.13052 6.06508 8.65314 5.30559 10.2956 5.07414C11.9381 4.8427 13.6113 5.15187 15.0626 5.95498L17.4496 3.60998C17.8298 3.23325 18.3405 3.01755 18.8756 3.00774C19.4107 2.99792 19.929 3.19475 20.3227 3.55729C20.7164 3.91983 20.9553 4.42017 20.9895 4.95427C21.0238 5.48837 20.8508 6.01512 20.5066 6.42498L20.3906 6.55098L18.0446 8.93798C18.82 10.3394 19.1356 11.949 18.9469 13.5395C18.7581 15.13 18.0745 16.621 16.9926 17.802" stroke="#666666" stroke-width="2" stroke-linecap="round" stroke-linejoin="round"/>
<path d="M9.2998 5.29999L18.6998 14.7M10.9998 18C10.9998 18.394 11.0774 18.7841 11.2282 19.148C11.3789 19.512 11.5999 19.8427 11.8785 20.1213C12.1571 20.3999 12.4878 20.6209 12.8518 20.7716C13.2157 20.9224 13.6058 21 13.9998 21C14.3938 21 14.7839 20.9224 15.1479 20.7716C15.5118 20.6209 15.8425 20.3999 16.1211 20.1213C16.3997 19.8427 16.6207 19.512 16.7714 19.148C16.9222 18.7841 16.9998 18.394 16.9998 18C16.9998 17.606 16.9222 17.2159 16.7714 16.8519C16.6207 16.488 16.3997 16.1572 16.1211 15.8787C15.8425 15.6001 15.5118 15.3791 15.1479 15.2283C14.7839 15.0776 14.3938 15 13.9998 15C13.6058 15 13.2157 15.0776 12.8518 15.2283C12.4878 15.3791 12.1571 15.6001 11.8785 15.8787C11.5999 16.1572 11.3789 16.488 11.2282 16.8519C11.0774 17.2159 10.9998 17.606 10.9998 18Z" stroke="#666666" stroke-width="2" stroke-linecap="round" stroke-linejoin="round"/>
</svg>